<svg width="87" height="44" viewBox="0 0 87 44" fill="none" xmlns="http://www.w3.org/2000/svg">
<path d="M7.90213 10.52H3.03813L2.14213 13H0.606125L4.63813 1.912H6.31813L10.3341 13H8.79813L7.90213 10.52ZM7.48613 9.336L5.47013 3.704L3.45413 9.336H7.48613ZM22.6354 4.072C23.318 4.072 23.926 4.216 24.4594 4.504C24.9927 4.78133 25.414 5.20267 25.7234 5.768C26.0327 6.33333 26.1874 7.02133 26.1874 7.832V13H24.7474V8.04C24.7474 7.16533 24.5287 6.49867 24.0914 6.04C23.6647 5.57067 23.0834 5.336 22.3474 5.336C21.59 5.336 20.9874 5.58133 20.5394 6.072C20.0914 6.552 19.8674 7.25067 19.8674 8.168V13H18.4274V8.04C18.4274 7.16533 18.2087 6.49867 17.7714 6.04C17.3447 5.57067 16.7634 5.336 16.0274 5.336C15.27 5.336 14.6674 5.58133 14.2194 6.072C13.7714 6.552 13.5474 7.25067 13.5474 8.168V13H12.0914V4.232H13.5474V5.496C13.8354 5.03733 14.2194 4.68533 14.6994 4.44C15.19 4.19467 15.7287 4.072 16.3154 4.072C17.0514 4.072 17.702 4.23733 18.2674 4.568C18.8327 4.89867 19.254 5.384 19.5314 6.024C19.7767 5.40533 20.182 4.92533 20.7474 4.584C21.3127 4.24267 21.942 4.072 22.6354 4.072ZM29.3278 2.808C29.0504 2.808 28.8158 2.712 28.6238 2.52C28.4318 2.328 28.3358 2.09333 28.3358 1.816C28.3358 1.53867 28.4318 1.304 28.6238 1.112C28.8158 0.919999 29.0504 0.823999 29.3278 0.823999C29.5944 0.823999 29.8184 0.919999 29.9998 1.112C30.1918 1.304 30.2878 1.53867 30.2878 1.816C30.2878 2.09333 30.1918 2.328 29.9998 2.52C29.8184 2.712 29.5944 2.808 29.3278 2.808ZM30.0318 4.232V13H28.5758V4.232H30.0318ZM43.0573 4.072C43.7399 4.072 44.3479 4.216 44.8813 4.504C45.4146 4.78133 45.8359 5.20267 46.1453 5.768C46.4546 6.33333 46.6093 7.02133 46.6093 7.832V13H45.1693V8.04C45.1693 7.16533 44.9506 6.49867 44.5133 6.04C44.0866 5.57067 43.5053 5.336 42.7693 5.336C42.0119 5.336 41.4093 5.58133 40.9613 6.072C40.5133 6.552 40.2893 7.25067 40.2893 8.168V13H38.8493V8.04C38.8493 7.16533 38.6306 6.49867 38.1933 6.04C37.7666 5.57067 37.1853 5.336 36.4493 5.336C35.6919 5.336 35.0893 5.58133 34.6413 6.072C34.1933 6.552 33.9693 7.25067 33.9693 8.168V13H32.5133V4.232H33.9693V5.496C34.2573 5.03733 34.6413 4.68533 35.1213 4.44C35.6119 4.19467 36.1506 4.072 36.7373 4.072C37.4733 4.072 38.1239 4.23733 38.6893 4.568C39.2546 4.89867 39.6759 5.384 39.9533 6.024C40.1986 5.40533 40.6039 4.92533 41.1693 4.584C41.7346 4.24267 42.3639 4.072 43.0573 4.072ZM56.9976 8.28C56.9976 8.55733 56.9816 8.85067 56.9496 9.16H49.9416C49.995 10.024 50.2883 10.7013 50.8216 11.192C51.3656 11.672 52.0216 11.912 52.7896 11.912C53.419 11.912 53.9416 11.768 54.3576 11.48C54.7843 11.1813 55.083 10.7867 55.2536 10.296H56.8216C56.587 11.1387 56.1176 11.8267 55.4136 12.36C54.7096 12.8827 53.835 13.144 52.7896 13.144C51.9576 13.144 51.211 12.9573 50.5496 12.584C49.899 12.2107 49.387 11.6827 49.0136 11C48.6403 10.3067 48.4536 9.50667 48.4536 8.6C48.4536 7.69333 48.635 6.89867 48.9976 6.216C49.3603 5.53333 49.867 5.01067 50.5176 4.648C51.179 4.27467 51.9363 4.088 52.7896 4.088C53.6216 4.088 54.3576 4.26933 54.9976 4.632C55.6376 4.99467 56.1283 5.496 56.4696 6.136C56.8216 6.76533 56.9976 7.48 56.9976 8.28ZM55.4936 7.976C55.4936 7.42133 55.371 6.94667 55.1256 6.552C54.8803 6.14667 54.5443 5.84267 54.1176 5.64C53.7016 5.42667 53.2376 5.32 52.7256 5.32C51.9896 5.32 51.3603 5.55467 50.8376 6.024C50.3256 6.49333 50.0323 7.144 49.9576 7.976H55.4936ZM60.6955 5.432V10.6C60.6955 11.0267 60.7862 11.3307 60.9675 11.512C61.1488 11.6827 61.4635 11.768 61.9115 11.768H62.9835V13H61.6715C60.8608 13 60.2528 12.8133 59.8475 12.44C59.4422 12.0667 59.2395 11.4533 59.2395 10.6V5.432H58.1035V4.232H59.2395V2.024H60.6955V4.232H62.9835V5.432H60.6955ZM65.4996 2.808C65.2223 2.808 64.9876 2.712 64.7956 2.52C64.6036 2.328 64.5076 2.09333 64.5076 1.816C64.5076 1.53867 64.6036 1.304 64.7956 1.112C64.9876 0.919999 65.2223 0.823999 65.4996 0.823999C65.7663 0.823999 65.9903 0.919999 66.1716 1.112C66.3636 1.304 66.4596 1.53867 66.4596 1.816C66.4596 2.09333 66.3636 2.328 66.1716 2.52C65.9903 2.712 65.7663 2.808 65.4996 2.808ZM66.2036 4.232V13H64.7476V4.232H66.2036ZM72.5091 13.144C71.6878 13.144 70.9411 12.9573 70.2691 12.584C69.6078 12.2107 69.0851 11.6827 68.7011 11C68.3278 10.3067 68.1411 9.50667 68.1411 8.6C68.1411 7.704 68.3331 6.91467 68.7171 6.232C69.1118 5.53867 69.6451 5.01067 70.3171 4.648C70.9891 4.27467 71.7411 4.088 72.5731 4.088C73.4051 4.088 74.1571 4.27467 74.8291 4.648C75.5011 5.01067 76.0291 5.53333 76.4131 6.216C76.8078 6.89867 77.0051 7.69333 77.0051 8.6C77.0051 9.50667 76.8025 10.3067 76.3971 11C76.0025 11.6827 75.4638 12.2107 74.7811 12.584C74.0985 12.9573 73.3411 13.144 72.5091 13.144ZM72.5091 11.864C73.0318 11.864 73.5225 11.7413 73.9811 11.496C74.4398 11.2507 74.8078 10.8827 75.0851 10.392C75.3731 9.90133 75.5171 9.304 75.5171 8.6C75.5171 7.896 75.3785 7.29867 75.1011 6.808C74.8238 6.31733 74.4611 5.95467 74.0131 5.72C73.5651 5.47467 73.0798 5.352 72.5571 5.352C72.0238 5.352 71.5331 5.47467 71.0851 5.72C70.6478 5.95467 70.2958 6.31733 70.0291 6.808C69.7625 7.29867 69.6291 7.896 69.6291 8.6C69.6291 9.31467 69.7571 9.91733 70.0131 10.408C70.2798 10.8987 70.6318 11.2667 71.0691 11.512C71.5065 11.7467 71.9865 11.864 72.5091 11.864ZM83.1915 4.072C84.2582 4.072 85.1222 4.39733 85.7835 5.048C86.4448 5.688 86.7755 6.616 86.7755 7.832V13H85.3355V8.04C85.3355 7.16533 85.1168 6.49867 84.6795 6.04C84.2422 5.57067 83.6448 5.336 82.8875 5.336C82.1195 5.336 81.5062 5.576 81.0475 6.056C80.5995 6.536 80.3755 7.23467 80.3755 8.152V13H78.9195V4.232H80.3755V5.48C80.6635 5.032 81.0528 4.68533 81.5435 4.44C82.0448 4.19467 82.5942 4.072 83.1915 4.072ZM25.1034 38.72C25.3034 39.7733 25.9168 40.3 26.9434 40.3C27.6501 40.3 28.1501 39.9867 28.4434 39.36C28.7368 38.7333 28.8834 37.7133 28.8834 36.3C28.5901 36.7133 28.1901 37.0333 27.6834 37.26C27.1768 37.4867 26.6101 37.6 25.9834 37.6C25.1301 37.6 24.3701 37.4267 23.7034 37.08C23.0368 36.72 22.5101 36.1933 22.1234 35.5C21.7501 34.7933 21.5634 33.94 21.5634 32.94C21.5634 31.9533 21.7634 31.0933 22.1634 30.36C22.5768 29.6267 23.1568 29.06 23.9034 28.66C24.6634 28.26 25.5568 28.06 26.5834 28.06C28.5568 28.06 29.9368 28.6733 30.7234 29.9C31.5101 31.1267 31.9034 32.9333 31.9034 35.32C31.9034 37.0533 31.7434 38.4867 31.4234 39.62C31.1168 40.74 30.5901 41.5933 29.8434 42.18C29.1101 42.7667 28.1034 43.06 26.8234 43.06C25.8101 43.06 24.9434 42.86 24.2234 42.46C23.5168 42.06 22.9701 41.5333 22.5834 40.88C22.2101 40.2267 21.9968 39.5067 21.9434 38.72H25.1034ZM26.7634 34.9C27.3234 34.9 27.7701 34.7333 28.1034 34.4C28.4368 34.0533 28.6034 33.5867 28.6034 33C28.6034 32.36 28.4301 31.8667 28.0834 31.52C27.7368 31.1733 27.2701 31 26.6834 31C26.0968 31 25.6301 31.18 25.2834 31.54C24.9501 31.8867 24.7834 32.3667 24.7834 32.98C24.7834 33.5533 24.9501 34.02 25.2834 34.38C25.6301 34.7267 26.1234 34.9 26.7634 34.9ZM44.0081 31.38H37.7681V34.14C38.0348 33.8467 38.4081 33.6067 38.8881 33.42C39.3681 33.2333 39.8881 33.14 40.4481 33.14C41.4481 33.14 42.2748 33.3667 42.9281 33.82C43.5948 34.2733 44.0815 34.86 44.3881 35.58C44.6948 36.3 44.8481 37.08 44.8481 37.92C44.8481 39.48 44.4081 40.72 43.5281 41.64C42.6481 42.5467 41.4081 43 39.8081 43C38.7415 43 37.8148 42.82 37.0281 42.46C36.2415 42.0867 35.6348 41.5733 35.2081 40.92C34.7815 40.2667 34.5481 39.5133 34.5081 38.66H37.8481C37.9281 39.0733 38.1215 39.42 38.4281 39.7C38.7348 39.9667 39.1548 40.1 39.6881 40.1C40.3148 40.1 40.7815 39.9 41.0881 39.5C41.3948 39.1 41.5481 38.5667 41.5481 37.9C41.5481 37.2467 41.3881 36.7467 41.0681 36.4C40.7481 36.0533 40.2815 35.88 39.6681 35.88C39.2148 35.88 38.8415 35.9933 38.5481 36.22C38.2548 36.4333 38.0615 36.72 37.9681 37.08H34.6681V28.38H44.0081V31.38ZM50.6942 32.08C50.6942 31 51.0009 30.1667 51.6142 29.58C52.2409 28.9933 53.0476 28.7 54.0342 28.7C55.0209 28.7 55.8209 28.9933 56.4342 29.58C57.0476 30.1667 57.3542 31 57.3542 32.08C57.3542 33.16 57.0476 33.9933 56.4342 34.58C55.8209 35.1667 55.0209 35.46 54.0342 35.46C53.0476 35.46 52.2409 35.1667 51.6142 34.58C51.0009 33.9933 50.6942 33.16 50.6942 32.08ZM64.2742 28.92L56.5742 43H53.2742L60.9742 28.92H64.2742ZM54.0142 30.7C53.3742 30.7 53.0542 31.16 53.0542 32.08C53.0542 32.9867 53.3742 33.44 54.0142 33.44C54.3209 33.44 54.5609 33.3267 54.7342 33.1C54.9076 32.8733 54.9942 32.5333 54.9942 32.08C54.9942 31.16 54.6676 30.7 54.0142 30.7ZM60.2142 39.84C60.2142 38.76 60.5209 37.9267 61.1342 37.34C61.7476 36.7533 62.5476 36.46 63.5342 36.46C64.5209 36.46 65.3209 36.7533 65.9342 37.34C66.5476 37.9267 66.8542 38.76 66.8542 39.84C66.8542 40.92 66.5476 41.7533 65.9342 42.34C65.3209 42.9267 64.5209 43.22 63.5342 43.22C62.5476 43.22 61.7476 42.9267 61.1342 42.34C60.5209 41.7533 60.2142 40.92 60.2142 39.84ZM63.5142 38.46C63.2076 38.46 62.9676 38.5733 62.7942 38.8C62.6342 39.0267 62.5542 39.3733 62.5542 39.84C62.5542 40.7467 62.8742 41.2 63.5142 41.2C63.8209 41.2 64.0609 41.0867 64.2342 40.86C64.4076 40.6333 64.4942 40.2933 64.4942 39.84C64.4942 39.3867 64.4076 39.0467 64.2342 38.82C64.0609 38.58 63.8209 38.46 63.5142 38.46Z" fill="#282828"/>
</svg>
