<svg width="192" height="14" viewBox="0 0 192 14" fill="none" xmlns="http://www.w3.org/2000/svg">
<path d="M3.704 1.848C4.92 1.848 5.97067 2.07733 6.856 2.536C7.752 2.984 8.43467 3.62933 8.904 4.472C9.384 5.31467 9.624 6.30667 9.624 7.448C9.624 8.58933 9.384 9.58133 8.904 10.424C8.43467 11.256 7.752 11.896 6.856 12.344C5.97067 12.7813 4.92 13 3.704 13H0.232V1.848H3.704ZM3.704 11.8C5.144 11.8 6.24267 11.4213 7 10.664C7.75733 9.896 8.136 8.824 8.136 7.448C8.136 6.06133 7.752 4.97867 6.984 4.2C6.22667 3.42133 5.13333 3.032 3.704 3.032H1.688V11.8H3.704ZM13.0005 5.656C13.2565 5.15467 13.6192 4.76533 14.0885 4.488C14.5685 4.21067 15.1498 4.072 15.8325 4.072V5.576H15.4485C13.8165 5.576 13.0005 6.46133 13.0005 8.232V13H11.5445V4.232H13.0005V5.656ZM18.2653 2.808C17.9879 2.808 17.7533 2.712 17.5613 2.52C17.3693 2.328 17.2733 2.09333 17.2733 1.816C17.2733 1.53867 17.3693 1.304 17.5613 1.112C17.7533 0.919999 17.9879 0.823999 18.2653 0.823999C18.5319 0.823999 18.7559 0.919999 18.9373 1.112C19.1293 1.304 19.2253 1.53867 19.2253 1.816C19.2253 2.09333 19.1293 2.328 18.9373 2.52C18.7559 2.712 18.5319 2.808 18.2653 2.808ZM18.9693 4.232V13H17.5133V4.232H18.9693ZM22.9068 5.864C23.2054 5.34133 23.6428 4.91467 24.2188 4.584C24.7948 4.25333 25.4508 4.088 26.1868 4.088C26.9761 4.088 27.6854 4.27467 28.3148 4.648C28.9441 5.02133 29.4401 5.54933 29.8028 6.232C30.1654 6.904 30.3468 7.688 30.3468 8.584C30.3468 9.46933 30.1654 10.2587 29.8028 10.952C29.4401 11.6453 28.9387 12.184 28.2987 12.568C27.6694 12.952 26.9654 13.144 26.1868 13.144C25.4294 13.144 24.7628 12.9787 24.1868 12.648C23.6214 12.3173 23.1948 11.896 22.9068 11.384V13H21.4508V1.16H22.9068V5.864ZM28.8588 8.584C28.8588 7.92267 28.7254 7.34667 28.4588 6.856C28.1921 6.36533 27.8294 5.992 27.3708 5.736C26.9228 5.48 26.4268 5.352 25.8828 5.352C25.3494 5.352 24.8534 5.48533 24.3948 5.752C23.9468 6.008 23.5841 6.38667 23.3068 6.888C23.0401 7.37867 22.9068 7.94933 22.9068 8.6C22.9068 9.26133 23.0401 9.84267 23.3068 10.344C23.5841 10.8347 23.9468 11.2133 24.3948 11.48C24.8534 11.736 25.3494 11.864 25.8828 11.864C26.4268 11.864 26.9228 11.736 27.3708 11.48C27.8294 11.2133 28.1921 10.8347 28.4588 10.344C28.7254 9.84267 28.8588 9.256 28.8588 8.584ZM33.7193 5.864C34.0179 5.34133 34.4553 4.91467 35.0312 4.584C35.6073 4.25333 36.2633 4.088 36.9993 4.088C37.7886 4.088 38.4979 4.27467 39.1273 4.648C39.7566 5.02133 40.2526 5.54933 40.6153 6.232C40.9779 6.904 41.1593 7.688 41.1593 8.584C41.1593 9.46933 40.9779 10.2587 40.6153 10.952C40.2526 11.6453 39.7512 12.184 39.1112 12.568C38.4819 12.952 37.7779 13.144 36.9993 13.144C36.2419 13.144 35.5753 12.9787 34.9993 12.648C34.4339 12.3173 34.0073 11.896 33.7193 11.384V13H32.2633V1.16H33.7193V5.864ZM39.6713 8.584C39.6713 7.92267 39.5379 7.34667 39.2713 6.856C39.0046 6.36533 38.6419 5.992 38.1833 5.736C37.7353 5.48 37.2393 5.352 36.6953 5.352C36.1619 5.352 35.6659 5.48533 35.2073 5.752C34.7593 6.008 34.3966 6.38667 34.1193 6.888C33.8526 7.37867 33.7193 7.94933 33.7193 8.6C33.7193 9.26133 33.8526 9.84267 34.1193 10.344C34.3966 10.8347 34.7593 11.2133 35.2073 11.48C35.6659 11.736 36.1619 11.864 36.6953 11.864C37.2393 11.864 37.7353 11.736 38.1833 11.48C38.6419 11.2133 39.0046 10.8347 39.2713 10.344C39.5379 9.84267 39.6713 9.256 39.6713 8.584ZM44.5318 1.16V13H43.0758V1.16H44.5318ZM55.0133 8.28C55.0133 8.55733 54.9973 8.85067 54.9653 9.16H47.9573C48.0106 10.024 48.3039 10.7013 48.8373 11.192C49.3813 11.672 50.0373 11.912 50.8053 11.912C51.4346 11.912 51.9573 11.768 52.3733 11.48C52.7999 11.1813 53.0986 10.7867 53.2693 10.296H54.8373C54.6026 11.1387 54.1333 11.8267 53.4293 12.36C52.7253 12.8827 51.8506 13.144 50.8053 13.144C49.9733 13.144 49.2266 12.9573 48.5653 12.584C47.9146 12.2107 47.4026 11.6827 47.0293 11C46.6559 10.3067 46.4693 9.50667 46.4693 8.6C46.4693 7.69333 46.6506 6.89867 47.0133 6.216C47.3759 5.53333 47.8826 5.01067 48.5333 4.648C49.1946 4.27467 49.9519 4.088 50.8053 4.088C51.6373 4.088 52.3733 4.26933 53.0133 4.632C53.6533 4.99467 54.1439 5.496 54.4853 6.136C54.8373 6.76533 55.0133 7.48 55.0133 8.28ZM53.5093 7.976C53.5093 7.42133 53.3866 6.94667 53.1413 6.552C52.8959 6.14667 52.5599 5.84267 52.1333 5.64C51.7173 5.42667 51.2533 5.32 50.7413 5.32C50.0053 5.32 49.3759 5.55467 48.8533 6.024C48.3413 6.49333 48.0479 7.144 47.9733 7.976H53.5093Z" fill="#FF4C60"/>
<path d="M135.035 7.256C135.44 7.32 135.808 7.48533 136.139 7.752C136.48 8.01867 136.747 8.34933 136.939 8.744C137.141 9.13867 137.243 9.56 137.243 10.008C137.243 10.5733 137.099 11.0853 136.811 11.544C136.523 11.992 136.101 12.3493 135.547 12.616C135.003 12.872 134.357 13 133.611 13H129.451V1.848H133.451C134.208 1.848 134.853 1.976 135.387 2.232C135.92 2.47733 136.32 2.81333 136.587 3.24C136.853 3.66667 136.987 4.14667 136.987 4.68C136.987 5.34133 136.805 5.89067 136.443 6.328C136.091 6.75467 135.621 7.064 135.035 7.256ZM130.907 6.664H133.355C134.037 6.664 134.565 6.504 134.939 6.184C135.312 5.864 135.499 5.42133 135.499 4.856C135.499 4.29067 135.312 3.848 134.939 3.528C134.565 3.208 134.027 3.048 133.323 3.048H130.907V6.664ZM133.483 11.8C134.208 11.8 134.773 11.6293 135.179 11.288C135.584 10.9467 135.787 10.472 135.787 9.864C135.787 9.24533 135.573 8.76 135.147 8.408C134.72 8.04533 134.149 7.864 133.435 7.864H130.907V11.8H133.483ZM147.263 8.28C147.263 8.55733 147.247 8.85067 147.215 9.16H140.207C140.261 10.024 140.554 10.7013 141.087 11.192C141.631 11.672 142.287 11.912 143.055 11.912C143.685 11.912 144.207 11.768 144.623 11.48C145.05 11.1813 145.349 10.7867 145.519 10.296H147.087C146.853 11.1387 146.383 11.8267 145.679 12.36C144.975 12.8827 144.101 13.144 143.055 13.144C142.223 13.144 141.477 12.9573 140.815 12.584C140.165 12.2107 139.653 11.6827 139.279 11C138.906 10.3067 138.719 9.50667 138.719 8.6C138.719 7.69333 138.901 6.89867 139.263 6.216C139.626 5.53333 140.133 5.01067 140.783 4.648C141.445 4.27467 142.202 4.088 143.055 4.088C143.887 4.088 144.623 4.26933 145.263 4.632C145.903 4.99467 146.394 5.496 146.735 6.136C147.087 6.76533 147.263 7.48 147.263 8.28ZM145.759 7.976C145.759 7.42133 145.637 6.94667 145.391 6.552C145.146 6.14667 144.81 5.84267 144.383 5.64C143.967 5.42667 143.503 5.32 142.991 5.32C142.255 5.32 141.626 5.55467 141.103 6.024C140.591 6.49333 140.298 7.144 140.223 7.976H145.759ZM153.537 4.072C154.198 4.072 154.796 4.216 155.329 4.504C155.862 4.78133 156.278 5.20267 156.577 5.768C156.886 6.33333 157.041 7.02133 157.041 7.832V13H155.601V8.04C155.601 7.16533 155.382 6.49867 154.945 6.04C154.508 5.57067 153.91 5.336 153.153 5.336C152.385 5.336 151.772 5.576 151.313 6.056C150.865 6.536 150.641 7.23467 150.641 8.152V13H149.185V1.16H150.641V5.48C150.929 5.032 151.324 4.68533 151.825 4.44C152.337 4.19467 152.908 4.072 153.537 4.072ZM160.172 2.808C159.894 2.808 159.66 2.712 159.468 2.52C159.276 2.328 159.18 2.09333 159.18 1.816C159.18 1.53867 159.276 1.304 159.468 1.112C159.66 0.919999 159.894 0.823999 160.172 0.823999C160.438 0.823999 160.662 0.919999 160.844 1.112C161.036 1.304 161.132 1.53867 161.132 1.816C161.132 2.09333 161.036 2.328 160.844 2.52C160.662 2.712 160.438 2.808 160.172 2.808ZM160.876 4.232V13H159.42V4.232H160.876ZM167.629 4.072C168.696 4.072 169.56 4.39733 170.221 5.048C170.882 5.688 171.213 6.616 171.213 7.832V13H169.773V8.04C169.773 7.16533 169.554 6.49867 169.117 6.04C168.68 5.57067 168.082 5.336 167.325 5.336C166.557 5.336 165.944 5.576 165.485 6.056C165.037 6.536 164.813 7.23467 164.813 8.152V13H163.357V4.232H164.813V5.48C165.101 5.032 165.49 4.68533 165.981 4.44C166.482 4.19467 167.032 4.072 167.629 4.072ZM173.047 8.6C173.047 7.69333 173.229 6.904 173.591 6.232C173.954 5.54933 174.455 5.02133 175.095 4.648C175.746 4.27467 176.487 4.088 177.319 4.088C178.397 4.088 179.282 4.34933 179.975 4.872C180.679 5.39467 181.143 6.12 181.367 7.048H179.799C179.65 6.51467 179.357 6.09333 178.919 5.784C178.493 5.47467 177.959 5.32 177.319 5.32C176.487 5.32 175.815 5.608 175.303 6.184C174.791 6.74933 174.535 7.55467 174.535 8.6C174.535 9.656 174.791 10.472 175.303 11.048C175.815 11.624 176.487 11.912 177.319 11.912C177.959 11.912 178.493 11.7627 178.919 11.464C179.346 11.1653 179.639 10.7387 179.799 10.184H181.367C181.133 11.08 180.663 11.8 179.959 12.344C179.255 12.8773 178.375 13.144 177.319 13.144C176.487 13.144 175.746 12.9573 175.095 12.584C174.455 12.2107 173.954 11.6827 173.591 11C173.229 10.3173 173.047 9.51733 173.047 8.6ZM191.31 8.28C191.31 8.55733 191.294 8.85067 191.262 9.16H184.254C184.307 10.024 184.601 10.7013 185.134 11.192C185.678 11.672 186.334 11.912 187.102 11.912C187.731 11.912 188.254 11.768 188.67 11.48C189.097 11.1813 189.395 10.7867 189.566 10.296H191.134C190.899 11.1387 190.43 11.8267 189.726 12.36C189.022 12.8827 188.147 13.144 187.102 13.144C186.27 13.144 185.523 12.9573 184.862 12.584C184.211 12.2107 183.699 11.6827 183.326 11C182.953 10.3067 182.766 9.50667 182.766 8.6C182.766 7.69333 182.947 6.89867 183.31 6.216C183.673 5.53333 184.179 5.01067 184.83 4.648C185.491 4.27467 186.249 4.088 187.102 4.088C187.934 4.088 188.67 4.26933 189.31 4.632C189.95 4.99467 190.441 5.496 190.782 6.136C191.134 6.76533 191.31 7.48 191.31 8.28ZM189.806 7.976C189.806 7.42133 189.683 6.94667 189.438 6.552C189.193 6.14667 188.857 5.84267 188.43 5.64C188.014 5.42667 187.55 5.32 187.038 5.32C186.302 5.32 185.673 5.55467 185.15 6.024C184.638 6.49333 184.345 7.144 184.27 7.976H189.806Z" fill="#282828"/>
</svg>
