<svg width="71" height="44" viewBox="0 0 71 44" fill="none" xmlns="http://www.w3.org/2000/svg">
<path d="M9.03156 5.08C8.72223 4.42933 8.27423 3.928 7.68756 3.576C7.1009 3.21333 6.41823 3.032 5.63956 3.032C4.8609 3.032 4.1569 3.21333 3.52756 3.576C2.9089 3.928 2.41823 4.44 2.05556 5.112C1.70356 5.77333 1.52756 6.54133 1.52756 7.416C1.52756 8.29067 1.70356 9.05867 2.05556 9.72C2.41823 10.3813 2.9089 10.8933 3.52756 11.256C4.1569 11.608 4.8609 11.784 5.63956 11.784C6.72756 11.784 7.62356 11.4587 8.32756 10.808C9.03156 10.1573 9.44223 9.27733 9.55956 8.168H5.11156V6.984H11.1116V8.104C11.0262 9.02133 10.7382 9.864 10.2476 10.632C9.7569 11.3893 9.11156 11.992 8.31156 12.44C7.51156 12.8773 6.6209 13.096 5.63956 13.096C4.6049 13.096 3.6609 12.856 2.80756 12.376C1.95423 11.8853 1.2769 11.208 0.775563 10.344C0.284896 9.48 0.0395625 8.504 0.0395625 7.416C0.0395625 6.328 0.284896 5.352 0.775563 4.488C1.2769 3.61333 1.95423 2.936 2.80756 2.456C3.6609 1.96533 4.6049 1.72 5.63956 1.72C6.82356 1.72 7.8689 2.01333 8.77556 2.6C9.6929 3.18667 10.3596 4.01333 10.7756 5.08H9.03156ZM14.4927 5.656C14.7487 5.15467 15.1114 4.76533 15.5807 4.488C16.0607 4.21067 16.642 4.072 17.3247 4.072V5.576H16.9407C15.3087 5.576 14.4927 6.46133 14.4927 8.232V13H13.0367V4.232H14.4927V5.656ZM18.4614 8.584C18.4614 7.688 18.6428 6.904 19.0054 6.232C19.3681 5.54933 19.8641 5.02133 20.4934 4.648C21.1334 4.27467 21.8428 4.088 22.6214 4.088C23.3894 4.088 24.0561 4.25333 24.6214 4.584C25.1868 4.91467 25.6081 5.33067 25.8854 5.832V4.232H27.3574V13H25.8854V11.368C25.5974 11.88 25.1654 12.3067 24.5894 12.648C24.0241 12.9787 23.3628 13.144 22.6054 13.144C21.8268 13.144 21.1228 12.952 20.4934 12.568C19.8641 12.184 19.3681 11.6453 19.0054 10.952C18.6428 10.2587 18.4614 9.46933 18.4614 8.584ZM25.8854 8.6C25.8854 7.93867 25.7521 7.36267 25.4854 6.872C25.2188 6.38133 24.8561 6.008 24.3974 5.752C23.9494 5.48533 23.4534 5.352 22.9094 5.352C22.3654 5.352 21.8694 5.48 21.4214 5.736C20.9734 5.992 20.6161 6.36533 20.3494 6.856C20.0828 7.34667 19.9494 7.92267 19.9494 8.584C19.9494 9.256 20.0828 9.84267 20.3494 10.344C20.6161 10.8347 20.9734 11.2133 21.4214 11.48C21.8694 11.736 22.3654 11.864 22.9094 11.864C23.4534 11.864 23.9494 11.736 24.3974 11.48C24.8561 11.2133 25.2188 10.8347 25.4854 10.344C25.7521 9.84267 25.8854 9.26133 25.8854 8.6ZM31.2739 5.848C31.5619 5.34667 31.9886 4.93067 32.5539 4.6C33.1299 4.25867 33.7966 4.088 34.5539 4.088C35.3326 4.088 36.0366 4.27467 36.6659 4.648C37.3059 5.02133 37.8073 5.54933 38.1699 6.232C38.5326 6.904 38.7139 7.688 38.7139 8.584C38.7139 9.46933 38.5326 10.2587 38.1699 10.952C37.8073 11.6453 37.3059 12.184 36.6659 12.568C36.0366 12.952 35.3326 13.144 34.5539 13.144C33.8073 13.144 33.1459 12.9787 32.5699 12.648C32.0046 12.3067 31.5726 11.8853 31.2739 11.384V17.16H29.8179V4.232H31.2739V5.848ZM37.2259 8.584C37.2259 7.92267 37.0926 7.34667 36.8259 6.856C36.5593 6.36533 36.1966 5.992 35.7379 5.736C35.2899 5.48 34.7939 5.352 34.2499 5.352C33.7166 5.352 33.2206 5.48533 32.7619 5.752C32.3139 6.008 31.9513 6.38667 31.6739 6.888C31.4073 7.37867 31.2739 7.94933 31.2739 8.6C31.2739 9.26133 31.4073 9.84267 31.6739 10.344C31.9513 10.8347 32.3139 11.2133 32.7619 11.48C33.2206 11.736 33.7166 11.864 34.2499 11.864C34.7939 11.864 35.2899 11.736 35.7379 11.48C36.1966 11.2133 36.5593 10.8347 36.8259 10.344C37.0926 9.84267 37.2259 9.256 37.2259 8.584ZM44.9824 4.072C45.6438 4.072 46.2411 4.216 46.7744 4.504C47.3078 4.78133 47.7238 5.20267 48.0224 5.768C48.3318 6.33333 48.4864 7.02133 48.4864 7.832V13H47.0464V8.04C47.0464 7.16533 46.8278 6.49867 46.3904 6.04C45.9531 5.57067 45.3558 5.336 44.5984 5.336C43.8304 5.336 43.2171 5.576 42.7584 6.056C42.3104 6.536 42.0864 7.23467 42.0864 8.152V13H40.6304V1.16H42.0864V5.48C42.3744 5.032 42.7691 4.68533 43.2704 4.44C43.7824 4.19467 44.3531 4.072 44.9824 4.072ZM51.6168 2.808C51.3395 2.808 51.1048 2.712 50.9128 2.52C50.7208 2.328 50.6248 2.09333 50.6248 1.816C50.6248 1.53867 50.7208 1.304 50.9128 1.112C51.1048 0.919999 51.3395 0.823999 51.6168 0.823999C51.8835 0.823999 52.1075 0.919999 52.2888 1.112C52.4808 1.304 52.5768 1.53867 52.5768 1.816C52.5768 2.09333 52.4808 2.328 52.2888 2.52C52.1075 2.712 51.8835 2.808 51.6168 2.808ZM52.3208 4.232V13H50.8648V4.232H52.3208ZM54.2583 8.6C54.2583 7.69333 54.4396 6.904 54.8023 6.232C55.165 5.54933 55.6663 5.02133 56.3063 4.648C56.957 4.27467 57.6983 4.088 58.5303 4.088C59.6076 4.088 60.493 4.34933 61.1863 4.872C61.8903 5.39467 62.3543 6.12 62.5783 7.048H61.0103C60.861 6.51467 60.5676 6.09333 60.1303 5.784C59.7036 5.47467 59.1703 5.32 58.5303 5.32C57.6983 5.32 57.0263 5.608 56.5143 6.184C56.0023 6.74933 55.7463 7.55467 55.7463 8.6C55.7463 9.656 56.0023 10.472 56.5143 11.048C57.0263 11.624 57.6983 11.912 58.5303 11.912C59.1703 11.912 59.7036 11.7627 60.1303 11.464C60.557 11.1653 60.8503 10.7387 61.0103 10.184H62.5783C62.3436 11.08 61.8743 11.8 61.1703 12.344C60.4663 12.8773 59.5863 13.144 58.5303 13.144C57.6983 13.144 56.957 12.9573 56.3063 12.584C55.6663 12.2107 55.165 11.6827 54.8023 11C54.4396 10.3173 54.2583 9.51733 54.2583 8.6ZM67.6251 13.144C66.9531 13.144 66.3504 13.032 65.8171 12.808C65.2837 12.5733 64.8624 12.2533 64.5531 11.848C64.2437 11.432 64.0731 10.9573 64.0411 10.424H65.5451C65.5877 10.8613 65.7904 11.2187 66.1531 11.496C66.5264 11.7733 67.0117 11.912 67.6091 11.912C68.1637 11.912 68.6011 11.7893 68.9211 11.544C69.2411 11.2987 69.4011 10.9893 69.4011 10.616C69.4011 10.232 69.2304 9.94933 68.8891 9.768C68.5477 9.576 68.0197 9.38933 67.3051 9.208C66.6544 9.03733 66.1211 8.86667 65.7051 8.696C65.2997 8.51467 64.9477 8.25333 64.6491 7.912C64.3611 7.56 64.2171 7.10133 64.2171 6.536C64.2171 6.088 64.3504 5.67733 64.6171 5.304C64.8837 4.93067 65.2624 4.63733 65.7531 4.424C66.2437 4.2 66.8037 4.088 67.4331 4.088C68.4037 4.088 69.1877 4.33333 69.7851 4.824C70.3824 5.31467 70.7024 5.98667 70.7451 6.84H69.2891C69.2571 6.38133 69.0704 6.01333 68.7291 5.736C68.3984 5.45867 67.9504 5.32 67.3851 5.32C66.8624 5.32 66.4464 5.432 66.1371 5.656C65.8277 5.88 65.6731 6.17333 65.6731 6.536C65.6731 6.824 65.7637 7.064 65.9451 7.256C66.1371 7.43733 66.3717 7.58667 66.6491 7.704C66.9371 7.81067 67.3317 7.93333 67.8331 8.072C68.4624 8.24267 68.9744 8.41333 69.3691 8.584C69.7637 8.744 70.0997 8.98933 70.3771 9.32C70.6651 9.65067 70.8144 10.0827 70.8251 10.616C70.8251 11.096 70.6917 11.528 70.4251 11.912C70.1584 12.296 69.7797 12.6 69.2891 12.824C68.8091 13.0373 68.2544 13.144 67.6251 13.144ZM19.0741 38.72C19.2741 39.7733 19.8875 40.3 20.9141 40.3C21.6208 40.3 22.1208 39.9867 22.4141 39.36C22.7075 38.7333 22.8541 37.7133 22.8541 36.3C22.5608 36.7133 22.1608 37.0333 21.6541 37.26C21.1475 37.4867 20.5808 37.6 19.9541 37.6C19.1008 37.6 18.3408 37.4267 17.6741 37.08C17.0075 36.72 16.4808 36.1933 16.0941 35.5C15.7208 34.7933 15.5341 33.94 15.5341 32.94C15.5341 31.9533 15.7341 31.0933 16.1341 30.36C16.5475 29.6267 17.1275 29.06 17.8741 28.66C18.6341 28.26 19.5275 28.06 20.5541 28.06C22.5275 28.06 23.9075 28.6733 24.6941 29.9C25.4808 31.1267 25.8741 32.9333 25.8741 35.32C25.8741 37.0533 25.7141 38.4867 25.3941 39.62C25.0875 40.74 24.5608 41.5933 23.8141 42.18C23.0808 42.7667 22.0741 43.06 20.7941 43.06C19.7808 43.06 18.9141 42.86 18.1941 42.46C17.4875 42.06 16.9408 41.5333 16.5541 40.88C16.1808 40.2267 15.9675 39.5067 15.9141 38.72H19.0741ZM20.7341 34.9C21.2941 34.9 21.7408 34.7333 22.0741 34.4C22.4075 34.0533 22.5741 33.5867 22.5741 33C22.5741 32.36 22.4008 31.8667 22.0541 31.52C21.7075 31.1733 21.2408 31 20.6541 31C20.0675 31 19.6008 31.18 19.2541 31.54C18.9208 31.8867 18.7541 32.3667 18.7541 32.98C18.7541 33.5533 18.9208 34.02 19.2541 34.38C19.6008 34.7267 20.0941 34.9 20.7341 34.9ZM31.3788 38.72C31.5788 39.7733 32.1922 40.3 33.2188 40.3C33.9255 40.3 34.4255 39.9867 34.7188 39.36C35.0122 38.7333 35.1588 37.7133 35.1588 36.3C34.8655 36.7133 34.4655 37.0333 33.9588 37.26C33.4522 37.4867 32.8855 37.6 32.2588 37.6C31.4055 37.6 30.6455 37.4267 29.9788 37.08C29.3122 36.72 28.7855 36.1933 28.3988 35.5C28.0255 34.7933 27.8388 33.94 27.8388 32.94C27.8388 31.9533 28.0388 31.0933 28.4388 30.36C28.8522 29.6267 29.4322 29.06 30.1788 28.66C30.9388 28.26 31.8322 28.06 32.8588 28.06C34.8322 28.06 36.2122 28.6733 36.9988 29.9C37.7855 31.1267 38.1788 32.9333 38.1788 35.32C38.1788 37.0533 38.0188 38.4867 37.6988 39.62C37.3922 40.74 36.8655 41.5933 36.1188 42.18C35.3855 42.7667 34.3788 43.06 33.0988 43.06C32.0855 43.06 31.2188 42.86 30.4988 42.46C29.7922 42.06 29.2455 41.5333 28.8588 40.88C28.4855 40.2267 28.2722 39.5067 28.2188 38.72H31.3788ZM33.0388 34.9C33.5988 34.9 34.0455 34.7333 34.3788 34.4C34.7122 34.0533 34.8788 33.5867 34.8788 33C34.8788 32.36 34.7055 31.8667 34.3588 31.52C34.0122 31.1733 33.5455 31 32.9588 31C32.3722 31 31.9055 31.18 31.5588 31.54C31.2255 31.8867 31.0588 32.3667 31.0588 32.98C31.0588 33.5533 31.2255 34.02 31.5588 34.38C31.9055 34.7267 32.3988 34.9 33.0388 34.9ZM39.7235 32.08C39.7235 31 40.0302 30.1667 40.6435 29.58C41.2702 28.9933 42.0768 28.7 43.0635 28.7C44.0502 28.7 44.8502 28.9933 45.4635 29.58C46.0768 30.1667 46.3835 31 46.3835 32.08C46.3835 33.16 46.0768 33.9933 45.4635 34.58C44.8502 35.1667 44.0502 35.46 43.0635 35.46C42.0768 35.46 41.2702 35.1667 40.6435 34.58C40.0302 33.9933 39.7235 33.16 39.7235 32.08ZM53.3035 28.92L45.6035 43H42.3035L50.0035 28.92H53.3035ZM43.0435 30.7C42.4035 30.7 42.0835 31.16 42.0835 32.08C42.0835 32.9867 42.4035 33.44 43.0435 33.44C43.3502 33.44 43.5902 33.3267 43.7635 33.1C43.9368 32.8733 44.0235 32.5333 44.0235 32.08C44.0235 31.16 43.6968 30.7 43.0435 30.7ZM49.2435 39.84C49.2435 38.76 49.5502 37.9267 50.1635 37.34C50.7768 36.7533 51.5768 36.46 52.5635 36.46C53.5502 36.46 54.3502 36.7533 54.9635 37.34C55.5768 37.9267 55.8835 38.76 55.8835 39.84C55.8835 40.92 55.5768 41.7533 54.9635 42.34C54.3502 42.9267 53.5502 43.22 52.5635 43.22C51.5768 43.22 50.7768 42.9267 50.1635 42.34C49.5502 41.7533 49.2435 40.92 49.2435 39.84ZM52.5435 38.46C52.2368 38.46 51.9968 38.5733 51.8235 38.8C51.6635 39.0267 51.5835 39.3733 51.5835 39.84C51.5835 40.7467 51.9035 41.2 52.5435 41.2C52.8502 41.2 53.0902 41.0867 53.2635 40.86C53.4368 40.6333 53.5235 40.2933 53.5235 39.84C53.5235 39.3867 53.4368 39.0467 53.2635 38.82C53.0902 38.58 52.8502 38.46 52.5435 38.46Z" fill="#282828"/>
</svg>
