<svg width="99" height="44" viewBox="0 0 99 44" fill="none" xmlns="http://www.w3.org/2000/svg">
<path d="M1.73413 1.848V8.904C1.73413 9.896 1.97413 10.632 2.45413 11.112C2.94479 11.592 3.62213 11.832 4.48613 11.832C5.33946 11.832 6.00613 11.592 6.48613 11.112C6.97679 10.632 7.22213 9.896 7.22213 8.904V1.848H8.67813V8.888C8.67813 9.816 8.49146 10.6 8.11812 11.24C7.74479 11.8693 7.23813 12.3387 6.59813 12.648C5.96879 12.9573 5.25946 13.112 4.47013 13.112C3.68079 13.112 2.96613 12.9573 2.32613 12.648C1.69679 12.3387 1.19546 11.8693 0.822125 11.24C0.459458 10.6 0.278125 9.816 0.278125 8.888V1.848H1.73413ZM11.859 2.808C11.5817 2.808 11.347 2.712 11.155 2.52C10.963 2.328 10.867 2.09333 10.867 1.816C10.867 1.53867 10.963 1.304 11.155 1.112C11.347 0.919999 11.5817 0.823999 11.859 0.823999C12.1257 0.823999 12.3497 0.919999 12.531 1.112C12.723 1.304 12.819 1.53867 12.819 1.816C12.819 2.09333 12.723 2.328 12.531 2.52C12.3497 2.712 12.1257 2.808 11.859 2.808ZM12.563 4.232V13H11.107V4.232H12.563ZM21.1245 6.52V7.752H14.7405V6.52H21.1245ZM25.281 1.848V8.904C25.281 9.896 25.521 10.632 26.001 11.112C26.4917 11.592 27.169 11.832 28.033 11.832C28.8863 11.832 29.553 11.592 30.033 11.112C30.5237 10.632 30.769 9.896 30.769 8.904V1.848H32.225V8.888C32.225 9.816 32.0383 10.6 31.665 11.24C31.2917 11.8693 30.785 12.3387 30.145 12.648C29.5157 12.9573 28.8063 13.112 28.017 13.112C27.2277 13.112 26.513 12.9573 25.873 12.648C25.2437 12.3387 24.7423 11.8693 24.369 11.24C24.0063 10.6 23.825 9.816 23.825 8.888V1.848H25.281ZM39.2299 13L37.1499 9.736L35.1499 13H33.6299L36.4619 8.648L33.6299 4.232H35.2779L37.3579 7.48L39.3419 4.232H40.8619L38.0459 8.568L40.8779 13H39.2299ZM50.0477 1.848C51.2638 1.848 52.3144 2.07733 53.1998 2.536C54.0958 2.984 54.7784 3.62933 55.2478 4.472C55.7278 5.31467 55.9678 6.30667 55.9678 7.448C55.9678 8.58933 55.7278 9.58133 55.2478 10.424C54.7784 11.256 54.0958 11.896 53.1998 12.344C52.3144 12.7813 51.2638 13 50.0477 13H46.5758V1.848H50.0477ZM50.0477 11.8C51.4878 11.8 52.5864 11.4213 53.3438 10.664C54.1011 9.896 54.4798 8.824 54.4798 7.448C54.4798 6.06133 54.0958 4.97867 53.3278 4.2C52.5704 3.42133 51.4771 3.032 50.0477 3.032H48.0318V11.8H50.0477ZM65.8883 8.28C65.8883 8.55733 65.8723 8.85067 65.8403 9.16H58.8323C58.8856 10.024 59.1789 10.7013 59.7123 11.192C60.2563 11.672 60.9123 11.912 61.6803 11.912C62.3096 11.912 62.8323 11.768 63.2483 11.48C63.6749 11.1813 63.9736 10.7867 64.1443 10.296H65.7123C65.4776 11.1387 65.0083 11.8267 64.3043 12.36C63.6003 12.8827 62.7256 13.144 61.6803 13.144C60.8483 13.144 60.1016 12.9573 59.4403 12.584C58.7896 12.2107 58.2776 11.6827 57.9043 11C57.5309 10.3067 57.3443 9.50667 57.3443 8.6C57.3443 7.69333 57.5256 6.89867 57.8883 6.216C58.2509 5.53333 58.7576 5.01067 59.4083 4.648C60.0696 4.27467 60.8269 4.088 61.6803 4.088C62.5123 4.088 63.2483 4.26933 63.8883 4.632C64.5283 4.99467 65.0189 5.496 65.3603 6.136C65.7123 6.76533 65.8883 7.48 65.8883 8.28ZM64.3843 7.976C64.3843 7.42133 64.2616 6.94667 64.0163 6.552C63.7709 6.14667 63.4349 5.84267 63.0083 5.64C62.5923 5.42667 62.1283 5.32 61.6163 5.32C60.8803 5.32 60.2509 5.55467 59.7283 6.024C59.2163 6.49333 58.9229 7.144 58.8483 7.976H64.3843ZM70.9141 13.144C70.2421 13.144 69.6395 13.032 69.1061 12.808C68.5728 12.5733 68.1515 12.2533 67.8421 11.848C67.5328 11.432 67.3621 10.9573 67.3301 10.424H68.8341C68.8768 10.8613 69.0795 11.2187 69.4421 11.496C69.8155 11.7733 70.3008 11.912 70.8981 11.912C71.4528 11.912 71.8901 11.7893 72.2101 11.544C72.5301 11.2987 72.6901 10.9893 72.6901 10.616C72.6901 10.232 72.5195 9.94933 72.1781 9.768C71.8368 9.576 71.3088 9.38933 70.5941 9.208C69.9435 9.03733 69.4101 8.86667 68.9941 8.696C68.5888 8.51467 68.2368 8.25333 67.9381 7.912C67.6501 7.56 67.5061 7.10133 67.5061 6.536C67.5061 6.088 67.6395 5.67733 67.9061 5.304C68.1728 4.93067 68.5515 4.63733 69.0421 4.424C69.5328 4.2 70.0928 4.088 70.7221 4.088C71.6928 4.088 72.4768 4.33333 73.0741 4.824C73.6715 5.31467 73.9915 5.98667 74.0341 6.84H72.5781C72.5461 6.38133 72.3595 6.01333 72.0181 5.736C71.6875 5.45867 71.2395 5.32 70.6741 5.32C70.1515 5.32 69.7355 5.432 69.4261 5.656C69.1168 5.88 68.9621 6.17333 68.9621 6.536C68.9621 6.824 69.0528 7.064 69.2341 7.256C69.4261 7.43733 69.6608 7.58667 69.9381 7.704C70.2261 7.81067 70.6208 7.93333 71.1221 8.072C71.7515 8.24267 72.2635 8.41333 72.6581 8.584C73.0528 8.744 73.3888 8.98933 73.6661 9.32C73.9541 9.65067 74.1035 10.0827 74.1141 10.616C74.1141 11.096 73.9808 11.528 73.7141 11.912C73.4475 12.296 73.0688 12.6 72.5781 12.824C72.0981 13.0373 71.5435 13.144 70.9141 13.144ZM76.9215 2.808C76.6442 2.808 76.4095 2.712 76.2175 2.52C76.0255 2.328 75.9295 2.09333 75.9295 1.816C75.9295 1.53867 76.0255 1.304 76.2175 1.112C76.4095 0.919999 76.6442 0.823999 76.9215 0.823999C77.1882 0.823999 77.4122 0.919999 77.5935 1.112C77.7855 1.304 77.8815 1.53867 77.8815 1.816C77.8815 2.09333 77.7855 2.328 77.5935 2.52C77.4122 2.712 77.1882 2.808 76.9215 2.808ZM77.6255 4.232V13H76.1695V4.232H77.6255ZM83.723 4.088C84.4803 4.088 85.1417 4.25333 85.707 4.584C86.283 4.91467 86.7097 5.33067 86.987 5.832V4.232H88.459V13.192C88.459 13.992 88.2883 14.7013 87.947 15.32C87.6057 15.9493 87.115 16.44 86.475 16.792C85.8457 17.144 85.1097 17.32 84.267 17.32C83.115 17.32 82.155 17.048 81.387 16.504C80.619 15.96 80.1657 15.2187 80.027 14.28H81.467C81.627 14.8133 81.9577 15.24 82.459 15.56C82.9603 15.8907 83.563 16.056 84.267 16.056C85.067 16.056 85.7177 15.8053 86.219 15.304C86.731 14.8027 86.987 14.0987 86.987 13.192V11.352C86.699 11.864 86.2723 12.2907 85.707 12.632C85.1417 12.9733 84.4803 13.144 83.723 13.144C82.9443 13.144 82.235 12.952 81.595 12.568C80.9657 12.184 80.4697 11.6453 80.107 10.952C79.7443 10.2587 79.563 9.46933 79.563 8.584C79.563 7.688 79.7443 6.904 80.107 6.232C80.4697 5.54933 80.9657 5.02133 81.595 4.648C82.235 4.27467 82.9443 4.088 83.723 4.088ZM86.987 8.6C86.987 7.93867 86.8537 7.36267 86.587 6.872C86.3203 6.38133 85.9577 6.008 85.499 5.752C85.051 5.48533 84.555 5.352 84.011 5.352C83.467 5.352 82.971 5.48 82.523 5.736C82.075 5.992 81.7177 6.36533 81.451 6.856C81.1843 7.34667 81.051 7.92267 81.051 8.584C81.051 9.256 81.1843 9.84267 81.451 10.344C81.7177 10.8347 82.075 11.2133 82.523 11.48C82.971 11.736 83.467 11.864 84.011 11.864C84.555 11.864 85.051 11.736 85.499 11.48C85.9577 11.2133 86.3203 10.8347 86.587 10.344C86.8537 9.84267 86.987 9.26133 86.987 8.6ZM95.1915 4.072C96.2582 4.072 97.1222 4.39733 97.7835 5.048C98.4448 5.688 98.7755 6.616 98.7755 7.832V13H97.3355V8.04C97.3355 7.16533 97.1168 6.49867 96.6795 6.04C96.2422 5.57067 95.6448 5.336 94.8875 5.336C94.1195 5.336 93.5062 5.576 93.0475 6.056C92.5995 6.536 92.3755 7.23467 92.3755 8.152V13H90.9195V4.232H92.3755V5.48C92.6635 5.032 93.0528 4.68533 93.5435 4.44C94.0448 4.19467 94.5942 4.072 95.1915 4.072ZM30.623 38.72C30.823 39.7733 31.4363 40.3 32.463 40.3C33.1696 40.3 33.6696 39.9867 33.963 39.36C34.2563 38.7333 34.403 37.7133 34.403 36.3C34.1096 36.7133 33.7096 37.0333 33.203 37.26C32.6963 37.4867 32.1296 37.6 31.503 37.6C30.6496 37.6 29.8896 37.4267 29.223 37.08C28.5563 36.72 28.0296 36.1933 27.643 35.5C27.2696 34.7933 27.083 33.94 27.083 32.94C27.083 31.9533 27.283 31.0933 27.683 30.36C28.0963 29.6267 28.6763 29.06 29.423 28.66C30.183 28.26 31.0763 28.06 32.103 28.06C34.0763 28.06 35.4563 28.6733 36.243 29.9C37.0296 31.1267 37.423 32.9333 37.423 35.32C37.423 37.0533 37.263 38.4867 36.943 39.62C36.6363 40.74 36.1096 41.5933 35.363 42.18C34.6296 42.7667 33.623 43.06 32.343 43.06C31.3296 43.06 30.463 42.86 29.743 42.46C29.0363 42.06 28.4896 41.5333 28.103 40.88C27.7296 40.2267 27.5163 39.5067 27.463 38.72H30.623ZM32.283 34.9C32.843 34.9 33.2896 34.7333 33.623 34.4C33.9563 34.0533 34.123 33.5867 34.123 33C34.123 32.36 33.9496 31.8667 33.603 31.52C33.2563 31.1733 32.7896 31 32.203 31C31.6163 31 31.1496 31.18 30.803 31.54C30.4696 31.8867 30.303 32.3667 30.303 32.98C30.303 33.5533 30.4696 34.02 30.803 34.38C31.1496 34.7267 31.643 34.9 32.283 34.9ZM41.6477 35.16C40.3943 34.4933 39.7677 33.4467 39.7677 32.02C39.7677 31.3 39.9543 30.6467 40.3277 30.06C40.701 29.46 41.2677 28.9867 42.0277 28.64C42.7877 28.28 43.721 28.1 44.8277 28.1C45.9343 28.1 46.861 28.28 47.6077 28.64C48.3677 28.9867 48.9343 29.46 49.3077 30.06C49.681 30.6467 49.8677 31.3 49.8677 32.02C49.8677 32.74 49.6943 33.3667 49.3477 33.9C49.0143 34.4333 48.561 34.8533 47.9877 35.16C48.7077 35.5067 49.261 35.9867 49.6477 36.6C50.0343 37.2 50.2277 37.9067 50.2277 38.72C50.2277 39.6667 49.9877 40.4867 49.5077 41.18C49.0277 41.86 48.3743 42.38 47.5477 42.74C46.7343 43.1 45.8277 43.28 44.8277 43.28C43.8277 43.28 42.9143 43.1 42.0877 42.74C41.2743 42.38 40.6277 41.86 40.1477 41.18C39.6677 40.4867 39.4277 39.6667 39.4277 38.72C39.4277 37.8933 39.621 37.18 40.0077 36.58C40.3943 35.9667 40.941 35.4933 41.6477 35.16ZM46.5477 32.54C46.5477 31.9933 46.3877 31.5733 46.0677 31.28C45.761 30.9733 45.3477 30.82 44.8277 30.82C44.3077 30.82 43.8877 30.9733 43.5677 31.28C43.261 31.5867 43.1077 32.0133 43.1077 32.56C43.1077 33.08 43.2677 33.4933 43.5877 33.8C43.9077 34.0933 44.321 34.24 44.8277 34.24C45.3343 34.24 45.7477 34.0867 46.0677 33.78C46.3877 33.4733 46.5477 33.06 46.5477 32.54ZM44.8277 36.64C44.201 36.64 43.6943 36.8133 43.3077 37.16C42.921 37.4933 42.7277 37.96 42.7277 38.56C42.7277 39.12 42.9143 39.58 43.2877 39.94C43.6743 40.3 44.1877 40.48 44.8277 40.48C45.4677 40.48 45.9677 40.3 46.3277 39.94C46.701 39.58 46.8877 39.12 46.8877 38.56C46.8877 37.9733 46.6943 37.5067 46.3077 37.16C45.9343 36.8133 45.441 36.64 44.8277 36.64ZM56.1747 32.08C56.1747 31 56.4814 30.1667 57.0947 29.58C57.7214 28.9933 58.528 28.7 59.5147 28.7C60.5014 28.7 61.3014 28.9933 61.9147 29.58C62.528 30.1667 62.8347 31 62.8347 32.08C62.8347 33.16 62.528 33.9933 61.9147 34.58C61.3014 35.1667 60.5014 35.46 59.5147 35.46C58.528 35.46 57.7214 35.1667 57.0947 34.58C56.4814 33.9933 56.1747 33.16 56.1747 32.08ZM69.7547 28.92L62.0547 43H58.7547L66.4547 28.92H69.7547ZM59.4947 30.7C58.8547 30.7 58.5347 31.16 58.5347 32.08C58.5347 32.9867 58.8547 33.44 59.4947 33.44C59.8014 33.44 60.0414 33.3267 60.2147 33.1C60.388 32.8733 60.4747 32.5333 60.4747 32.08C60.4747 31.16 60.148 30.7 59.4947 30.7ZM65.6947 39.84C65.6947 38.76 66.0014 37.9267 66.6147 37.34C67.228 36.7533 68.028 36.46 69.0147 36.46C70.0014 36.46 70.8014 36.7533 71.4147 37.34C72.028 37.9267 72.3347 38.76 72.3347 39.84C72.3347 40.92 72.028 41.7533 71.4147 42.34C70.8014 42.9267 70.0014 43.22 69.0147 43.22C68.028 43.22 67.228 42.9267 66.6147 42.34C66.0014 41.7533 65.6947 40.92 65.6947 39.84ZM68.9947 38.46C68.688 38.46 68.448 38.5733 68.2747 38.8C68.1147 39.0267 68.0347 39.3733 68.0347 39.84C68.0347 40.7467 68.3547 41.2 68.9947 41.2C69.3014 41.2 69.5414 41.0867 69.7147 40.86C69.888 40.6333 69.9747 40.2933 69.9747 39.84C69.9747 39.3867 69.888 39.0467 69.7147 38.82C69.5414 38.58 69.3014 38.46 68.9947 38.46Z" fill="#282828"/>
</svg>
